#!OML:ASF E:\Style3\Style3.ASF
:FULLY-SPECIFIED
:DEGREES
3065
root 0.369063 17.8451 0.610751 -323.633 94.646 -341.121
lowerback -10.8875 1.65487 0.432633
upperback -12.7571 3.1378 0.619694
thorax -7.44962 1.96514 0.493603
lowerneck -11.0068 -1.55858 -2.43538
upperneck 27.0341 -2.08087 4.08077
head 10.5307 -0.427892 1.67851
rclavicle -1.0312e-014 -2.65378e-014
rhumerus -150.445 -185.239 -544.087
rradius 117.341
rwrist -34.5419
rhand 2.07448 25.6011
rfingers 7.12502
rthumb 27.5758 -2.3987
lclavicle -1.0312e-014 -2.65378e-014
lhumerus -226.183 159.862 -137.141
lradius 95.8101
lwrist 26.0674
lhand -4.18733 10.4592
lfingers 7.12502
lthumb 21.5741 39.2775
rfemur -15.054 9.94332 19.4625
rtibia 12.2511
rfoot -14.7203 -24.1461
rtoes -11.1248
lfemur -9.02763 -4.59305 -13.9784
ltibia -2.8625e-014
lfoot -7.62735 11.4387
ltoes -17.4529
3066
root 0.372449 17.8439 0.602446 -324.148 94.6962 -341.578
lowerback -10.9669 1.77834 0.527953
upperback -12.7164 3.29189 0.560986
thorax -7.35288 2.03138 0.390729
lowerneck -11.0089 -1.71426 -2.52329
upperneck 27.2039 -2.26444 4.03679
head 10.6022 -0.519734 1.65889
rclavicle -1.8313e-014 -2.19657e-014
rhumerus -149.855 -185.883 -544.214
rradius 117.617
rwrist -33.93
rhand 1.36454 26.0233
rfingers 7.12502
rthumb 26.8967 -2.08303
lclavicle -1.8313e-014 -2.19657e-014
lhumerus -226.317 159.833 -137.447
lradius 95.8605
lwrist 26.3009
lhand -4.60007 10.5265
lfingers 7.12502
lthumb 21.1776 39.3897
rfemur -14.9303 9.8701 19.4249
rtibia 12.2143
rfoot -14.9256 -23.9868
rtoes -10.4756
lfemur -8.93556 -4.67572 -14.0369
ltibia -1.74931e-014
lfoot -7.51982 11.5133
ltoes -18.4022
3067
root 0.377109 17.8437 0.595076 -323.608 94.7889 -340.933
lowerback -11.0067 1.91435 0.678673
upperback -12.6674 3.46128 0.555668
thorax -7.26897 2.10309 0.312972
lowerneck -11.0842 -1.87535 -2.5782
upperneck 27.4442 -2.43404 3.88911
head 10.7126 -0.612171 1.59856
rclavicle 1.41634e-014 8.15017e-015
rhumerus -149.316 -186.296 -544.236
rradius 118.026
rwrist -33.5957
rhand 1.00633 25.6936
rfingers 7.12502
rthumb 26.5539 -2.46504
lclavicle 1.41634e-014 8.15017e-015
lhumerus -226.51 159.809 -137.762
lradius 95.9024
lwrist 26.5451
lhand -4.93834 10.5468
lfingers 7.12502
lthumb 20.8527 39.4462
rfemur -14.7991 9.94889 19.4998
rtibia 12.2371
rfoot -15.0884 -23.9864
rtoes -10.084
lfemur -8.83974 -4.73658 -13.9764
ltibia 2.54444e-014
lfoot -7.60071 11.591
ltoes -17.7198
3068
root 0.377069 17.8435 0.588412 -324.269 94.9213 -341.55
lowerback -11.0483 2.01983 0.729802
upperback -12.6303 3.59697 0.540106
thorax -7.20121 2.16647 0.278045
lowerneck -11.0669 -2.05607 -2.71791
upperneck 27.5076 -2.64209 3.83311
head 10.7427 -0.725744 1.57785
rclavicle 2.21396e-014 1.74931e-014
rhumerus -148.979 -186.622 -544.22
rradius 118.446
rwrist -33.5288
rhand 0.930075 25.9676
rfingers 7.12502
rthumb 26.4809 -2.20209
lclavicle 2.21396e-014 1.74931e-014
lhumerus -226.68 159.734 -138.086
lradius 95.9274
lwrist 26.7394
lhand -5.09548 10.6332
lfingers 7.12502
lthumb 20.7017 39.549
rfemur -14.7535 9.91222 19.506
rtibia 12.2839
rfoot -15.0549 -24.0929
rtoes -10.2833
lfemur -8.85924 -4.88434 -13.9741
ltibia 4.45278e-014
lfoot -7.71032 11.6601
ltoes -16.3419
3069
root 0.37733 17.8417 0.578675 -326.328 95.0877 -343.501
lowerback -11.0208 2.08659 0.732925
upperback -12.5829 3.67999 0.493324
thorax -7.15984 2.20399 0.231435
lowerneck -11.0072 -2.22472 -2.7876
upperneck 27.5668 -2.83197 3.71901
head 10.7602 -0.8306 1.52641
rclavicle 2.66123e-014 1.46107e-014
rhumerus -148.58 -186.952 -544.262
rradius 118.674
rwrist -33.5762
rhand 0.535871 27.2589
rfingers 7.12502
rthumb 26.1035 -0.967117
lclavicle 2.66123e-014 1.46107e-014
lhumerus -226.837 159.654 -138.401
lradius 95.911
lwrist 26.8487
lhand -5.47943 10.6211
lfingers 7.12502
lthumb 20.3327 39.5767
rfemur -14.6145 9.75187 19.4248
rtibia 12.3422
rfoot -15.1917 -24.1183
rtoes -10.2727
lfemur -8.80098 -5.14029 -14.08
ltibia -6.36111e-015
lfoot -7.78483 11.7416
ltoes -15.3659
